<?xml version="1.0" encoding="utf-8"?><svg xmlns="http://www.w3.org/2000/svg" xmlns:xlink="http://www.w3.org/1999/xlink"><symbol viewBox="0 0 18 20" id="bag" xmlns="http://www.w3.org/2000/svg"><g clip-path="url(#aclip0)"><path d="M.71 6.68h16.428v8.557a4.065 4.065 0 01-1.18 2.862 4.026 4.026 0 01-2.846 1.186H4.737A4.015 4.015 0 011.89 18.1a4.058 4.058 0 01-1.18-2.862V6.68z" stroke="#080508" stroke-width="1.5"/><path d="M12.205 8.971a.716.716 0 00.71.715.709.709 0 00.711-.715h-1.421zm-7.978 0a.716.716 0 00.71.715.709.709 0 00.711-.715h-1.42zm1.421 0v-4.01h-1.42v4.01h1.42zm6.556-4.01v4.01h1.421v-4.01h-1.421zM8.926 1.668c.87 0 1.703.347 2.318.965s.96 1.456.96 2.33h1.421a4.737 4.737 0 00-1.376-3.34A4.686 4.686 0 008.927.238v1.429zM5.648 4.962c0-.874.346-1.712.96-2.33a3.27 3.27 0 012.318-.965V.238a4.686 4.686 0 00-3.323 1.384 4.736 4.736 0 00-1.376 3.34h1.421z"/></g><defs><clipPath id="aclip0"><path d="M0 0h18v20H0z"/></clipPath></defs></symbol><symbol viewBox="0 0 512 512" id="google" xmlns="http://www.w3.org/2000/svg"><path d="M507.527 208.179a10.132 10.132 0 00-9.955-8.242H261.404c-5.596 0-10.132 4.536-10.132 10.132v97.266c0 5.596 4.536 10.132 10.132 10.132h115.967c-11.752 23.149-30.065 42.7-52.671 55.958-20.729 12.168-44.485 18.599-68.7 18.599-56.417 0-107.615-35.479-127.404-88.296-5.72-15.213-8.62-31.271-8.62-47.729 0-15.134 2.471-30.009 7.34-44.206 18.871-54.919 70.586-91.818 128.685-91.818 25.528 0 50.398 7.11 71.916 20.561a10.13 10.13 0 0011.788-.752l79.65-65.209a10.13 10.13 0 00.054-15.634C373.632 20.933 315.599 0 256 0 114.841 0 0 114.841 0 256c0 42.345 10.552 84.299 30.516 121.326C75.307 460.396 161.708 512 256 512c59.004 0 116.586-20.556 162.139-57.879 44.922-36.807 76.269-88.19 88.261-144.677 3.715-17.449 5.6-35.431 5.6-53.445 0-16.093-1.505-32.182-4.473-47.82zM256 20.264c50.746 0 100.257 16.477 140.753 46.628l-64.4 52.724c-23.24-13.043-49.482-19.904-76.353-19.904-61.934 0-117.53 36.511-142.555 92.184l-62.849-51.454C91.079 68.767 167.977 20.264 256 20.264zM20.264 256c0-34.585 7.488-67.453 20.924-97.071l64.819 53.067A156.32 156.32 0 0099.712 256c0 16.43 2.525 32.523 7.502 47.94l-64.412 52.727C28.041 325.39 20.264 290.848 20.264 256zM256 491.736c-84.05 0-161.291-44.532-203.565-116.768l62.675-51.305c11.504 23.986 28.887 44.597 50.889 60.122 26.427 18.647 57.549 28.504 90 28.504 25.424 0 50.411-6.197 72.719-17.94l64.854 53.093c-39.883 28.655-88.184 44.294-137.572 44.294zM486.581 305.23c-10.63 50.067-37.787 95.775-76.714 129.362l-62.917-51.508c25.118-18.016 44.552-43.208 55.414-72.195a10.133 10.133 0 00-1.16-9.327 10.134 10.134 0 00-8.327-4.359H271.536V220.2h217.493a237.645 237.645 0 012.707 35.799c0 16.6-1.734 33.162-5.155 49.231z"/></symbol><symbol viewBox="0 0 10 11" id="i-delete" xmlns="http://www.w3.org/2000/svg"><g clip-path="url(#cclip0)"><path fill-rule="evenodd" clip-rule="evenodd" d="M6.186 5.357l3.56-3.634a.849.849 0 000-1.211.808.808 0 00-1.187 0L5 4.146 1.44.512a.808.808 0 00-1.186 0 .849.849 0 000 1.211l3.56 3.634-3.56 3.634a.849.849 0 000 1.212.808.808 0 001.187 0L5 6.568l3.56 3.635a.808.808 0 001.186 0 .849.849 0 000-1.212l-3.56-3.634z"/></g><defs><clipPath id="cclip0"><path transform="translate(0 .252)" d="M0 0h10v10.21H0z"/></clipPath></defs></symbol><symbol viewBox="0 0 320 320" id="yandex" xmlns="http://www.w3.org/2000/svg"><path d="M227.184 0h-45.466c-46.063 0-92.541 34.014-92.541 110.004 0 39.361 16.683 70.017 47.263 87.451L80.468 298.762c-2.653 4.791-2.722 10.221-.185 14.525C82.76 317.49 87.288 320 92.395 320h28.311c6.432 0 11.448-3.109 13.852-8.555L187.037 208.8h3.83v98.407c0 6.935 5.852 12.793 12.778 12.793h24.735c7.767 0 13.191-5.424 13.191-13.19V14.002C241.572 5.758 235.656 0 227.184 0zm-36.316 163.204h-6.756c-26.197 0-41.837-21.384-41.837-57.202 0-44.537 19.757-60.405 38.247-60.405h10.346v117.607z"/></symbol></svg>