<svg width="18" height="20" viewBox="0 0 18 20" fill="none" xmlns="http://www.w3.org/2000/svg">
<g clip-path="url(#clip0)">
<path d="M0.710526 6.67908H17.1379V15.2372C17.1379 15.7687 17.0338 16.295 16.8314 16.7861C16.6291 17.2772 16.3325 17.7234 15.9586 18.0993C15.5847 18.4751 15.1409 18.7733 14.6524 18.9767C14.1639 19.1801 13.6403 19.2848 13.1116 19.2848H4.73684C3.66916 19.2848 2.64519 18.8585 1.89014 18.0996C1.13509 17.3407 0.710777 16.3115 0.710526 15.2381V6.67908Z" stroke="#080508" stroke-width="1.5"/>
<path d="M12.2049 8.97143C12.2049 9.16087 12.2798 9.34255 12.4131 9.47651C12.5463 9.61046 12.727 9.68572 12.9155 9.68572C13.1039 9.68572 13.2846 9.61046 13.4179 9.47651C13.5511 9.34255 13.626 9.16087 13.626 8.97143H12.2049ZM4.22716 8.97143C4.22716 9.16087 4.30202 9.34255 4.43527 9.47651C4.56852 9.61046 4.74924 9.68572 4.93768 9.68572C5.12613 9.68572 5.30685 9.61046 5.4401 9.47651C5.57335 9.34255 5.64821 9.16087 5.64821 8.97143H4.22716ZM5.64821 8.97143V4.96191H4.22716V8.97143H5.64821ZM12.204 4.96191V8.97143H13.6251V4.96191H12.204ZM8.92611 1.66667C9.79546 1.66667 10.6292 2.01385 11.2439 2.63182C11.8587 3.2498 12.204 4.08796 12.204 4.96191H13.6251C13.6251 3.70924 13.1301 2.50787 12.2491 1.62201C11.3681 0.736148 10.1731 0.238351 8.92705 0.238098V1.66667H8.92611ZM5.64821 4.96191C5.64821 4.08796 5.99356 3.2498 6.60828 2.63182C7.22301 2.01385 8.05675 1.66667 8.92611 1.66667V0.238098C7.67987 0.238098 6.48467 0.735784 5.60345 1.62167C4.72222 2.50756 4.22716 3.70908 4.22716 4.96191H5.64821Z" fill="#080508"/>
</g>
<defs>
<clipPath id="clip0">
<rect width="18" height="20" fill="white"/>
</clipPath>
</defs>
</svg>
